<svg xmlns="http://www.w3.org/2000/svg" width="26" height="26" viewBox="0 0 26 26">
  <path id="Icon_metro-tools" data-name="Icon metro-tools" d="M30.707,9.878a6.737,6.737,0,0,1-1.4,7.233,6.373,6.373,0,0,1-7.772,1.063l-1.791,2,1.278,1.31.764-.78a.983.983,0,0,1,1.413,0l6.192,6.39a1.035,1.035,0,0,1,0,1.444l-2.826,2.887a.983.983,0,0,1-1.413,0l-6.192-6.39a1.035,1.035,0,0,1,0-1.444l.7-.712L18.436,21.63,9.873,31.187a1.968,1.968,0,0,1-2.826,0l-.707-.722a2.072,2.072,0,0,1,0-2.887L16.1,19.231,9.617,12.6H7.57L5.2,8.7l1.906-1.95L11,9.189l.025,2.047,6.554,6.722,1.907-1.631a6.727,6.727,0,0,1,.627-8.6,6.4,6.4,0,0,1,7.05-1.452l-4.2,4.23,3.534,3.61,4.206-4.238ZM8.684,28.6a.985.985,0,0,0-1.413,0,1.036,1.036,0,0,0,0,1.445.985.985,0,0,0,1.413,0A1.036,1.036,0,0,0,8.684,28.6Z" transform="translate(-5.203 -5.785)"/>
</svg>
