<svg xmlns="http://www.w3.org/2000/svg" width="222" height="139" viewBox="0 0 222 139">
  <g id="Group_53" data-name="Group 53" transform="translate(-65 -51)">
    <text id="VIVIAN_LI_" data-name="VIVIAN LI 
" transform="translate(65 51)" font-size="40" font-family="SegoeUI-Bold, Segoe UI" font-weight="700" letter-spacing="0.1em"><tspan x="3.701" y="43">VIVIAN LI </tspan></text>
    <g id="Group_34" data-name="Group 34">
      <circle id="Ellipse_1" data-name="Ellipse 1" cx="2.5" cy="2.5" r="2.5" transform="translate(236 113)" fill="#e6b500"/>
      <circle id="Ellipse_2" data-name="Ellipse 2" cx="2.5" cy="2.5" r="2.5" transform="translate(254 113)" fill="#e6b500"/>
      <circle id="Ellipse_3" data-name="Ellipse 3" cx="2.5" cy="2.5" r="2.5" transform="translate(272 113)" fill="#e6b500"/>
      <circle id="Ellipse_4" data-name="Ellipse 4" cx="2.5" cy="2.5" r="2.5" transform="translate(236 131)" fill="#e6b500"/>
      <circle id="Ellipse_5" data-name="Ellipse 5" cx="2.5" cy="2.5" r="2.5" transform="translate(254 131)" fill="#e6b500"/>
      <circle id="Ellipse_6" data-name="Ellipse 6" cx="2.5" cy="2.5" r="2.5" transform="translate(272 131)" fill="#e6b500"/>
      <circle id="Ellipse_7" data-name="Ellipse 7" cx="2.5" cy="2.5" r="2.5" transform="translate(236 149)" fill="#e6b500"/>
      <circle id="Ellipse_8" data-name="Ellipse 8" cx="2.5" cy="2.5" r="2.5" transform="translate(254 149)" fill="#e6b500"/>
      <circle id="Ellipse_9" data-name="Ellipse 9" cx="2.5" cy="2.5" r="2.5" transform="translate(272 149)" fill="#e6b500"/>
      <circle id="Ellipse_10" data-name="Ellipse 10" cx="2.5" cy="2.5" r="2.5" transform="translate(236 167)" fill="#e6b500"/>
      <circle id="Ellipse_11" data-name="Ellipse 11" cx="2.5" cy="2.5" r="2.5" transform="translate(254 167)" fill="#e6b500"/>
      <circle id="Ellipse_12" data-name="Ellipse 12" cx="2.5" cy="2.5" r="2.5" transform="translate(272 167)" fill="#e6b500"/>
      <circle id="Ellipse_13" data-name="Ellipse 13" cx="2.5" cy="2.5" r="2.5" transform="translate(236 185)" fill="#e6b500"/>
      <circle id="Ellipse_14" data-name="Ellipse 14" cx="2.5" cy="2.5" r="2.5" transform="translate(254 185)" fill="#e6b500"/>
      <circle id="Ellipse_15" data-name="Ellipse 15" cx="2.5" cy="2.5" r="2.5" transform="translate(272 185)" fill="#e6b500"/>
    </g>
  </g>
</svg>
