<svg xmlns="http://www.w3.org/2000/svg" xmlns:xlink="http://www.w3.org/1999/xlink" width="1920" height="1080" viewBox="0 0 1920 1080">
  <defs>
    <filter id="Rectangle_23" x="432" y="285" width="1118" height="642" filterUnits="userSpaceOnUse">
      <feOffset dy="3" input="SourceAlpha"/>
      <feGaussianBlur stdDeviation="5" result="blur"/>
      <feFlood flood-opacity="0.161"/>
      <feComposite operator="in" in2="blur"/>
      <feComposite in="SourceGraphic"/>
    </filter>
    <filter id="Rectangle_22" x="417" y="267" width="1118" height="642" filterUnits="userSpaceOnUse">
      <feOffset dy="3" input="SourceAlpha"/>
      <feGaussianBlur stdDeviation="5" result="blur-2"/>
      <feFlood flood-opacity="0.161"/>
      <feComposite operator="in" in2="blur-2"/>
      <feComposite in="SourceGraphic"/>
    </filter>
    <filter id="Rectangle_20" x="401" y="251" width="1118" height="642" filterUnits="userSpaceOnUse">
      <feOffset dy="3" input="SourceAlpha"/>
      <feGaussianBlur stdDeviation="5" result="blur-3"/>
      <feFlood flood-opacity="0.161"/>
      <feComposite operator="in" in2="blur-3"/>
      <feComposite in="SourceGraphic"/>
    </filter>
    <clipPath id="clip-Web_1920_16">
      <rect width="1920" height="1080"/>
    </clipPath>
  </defs>
  <g id="Web_1920_16" data-name="Web 1920 – 16" clip-path="url(#clip-Web_1920_16)">
    <rect width="1920" height="1080" fill="#fff"/>
    <g id="Group_55" data-name="Group 55">
      <g transform="matrix(1, 0, 0, 1, 0, 0)" filter="url(#Rectangle_23)">
        <rect id="Rectangle_23-2" data-name="Rectangle 23" width="1088" height="612" transform="translate(447 297)" fill="#fff"/>
      </g>
      <g transform="matrix(1, 0, 0, 1, 0, 0)" filter="url(#Rectangle_22)">
        <rect id="Rectangle_22-2" data-name="Rectangle 22" width="1088" height="612" transform="translate(432 279)" fill="#fff"/>
      </g>
      <g transform="matrix(1, 0, 0, 1, 0, 0)" filter="url(#Rectangle_20)">
        <rect id="Rectangle_20-2" data-name="Rectangle 20" width="1088" height="612" transform="translate(416 263)" fill="#fff"/>
      </g>
      <rect id="Rectangle_4" data-name="Rectangle 4" width="1088" height="57" transform="translate(416 263)"/>
      <text id="Welcome_" data-name="Welcome!" transform="translate(503 299)" fill="#fff" font-size="20" font-family="OpenSans, Open Sans" letter-spacing="0.03em"><tspan x="-47.881" y="0">Welcome!</tspan></text>
      <path id="Icon_awesome-heart" data-name="Icon awesome-heart" d="M19.744,3.556a5.84,5.84,0,0,0-7.969.581L10.933,5l-.841-.867a5.84,5.84,0,0,0-7.969-.581A6.133,6.133,0,0,0,1.7,12.435l8.264,8.533a1.339,1.339,0,0,0,1.935,0l8.264-8.533a6.129,6.129,0,0,0-.419-8.879Z" transform="translate(1448 279.686)" fill="#fff"/>
      <rect id="Rectangle_24" data-name="Rectangle 24" width="16" height="57" transform="translate(1504 279)"/>
      <rect id="Rectangle_25" data-name="Rectangle 25" width="15" height="57" transform="translate(1520 297)"/>
    </g>
    <circle id="Ellipse_97" data-name="Ellipse 97" cx="24.5" cy="24.5" r="24.5" transform="translate(79 643)" fill="#231ec0"/>
    <circle id="Ellipse_98" data-name="Ellipse 98" cx="24.5" cy="24.5" r="24.5" transform="translate(838 113)" fill="#cf0100"/>
    <circle id="Ellipse_99" data-name="Ellipse 99" cx="24.5" cy="24.5" r="24.5" transform="translate(1657 912)" fill="#e6b500"/>
    <circle id="Ellipse_100" data-name="Ellipse 100" cx="24.5" cy="24.5" r="24.5" transform="translate(263 408)" fill="#e6b500"/>
    <circle id="Ellipse_101" data-name="Ellipse 101" cx="24.5" cy="24.5" r="24.5" transform="translate(1780 643)" fill="#231ec0"/>
    <circle id="Ellipse_102" data-name="Ellipse 102" cx="24.5" cy="24.5" r="24.5" transform="translate(228 936)" fill="#cf0100"/>
    <circle id="Ellipse_103" data-name="Ellipse 103" cx="24.5" cy="24.5" r="24.5" transform="translate(1618 214)" fill="#e6b500"/>
  </g>
</svg>
